<svg width="32" height="32" viewBox="0 0 32 32" fill="none" xmlns="http://www.w3.org/2000/svg">
  <rect width="32" height="32" rx="6" fill="#000814"/>
  <path d="M8 12C8 10.8954 8.89543 10 10 10H22C23.1046 10 24 10.8954 24 12V20C24 21.1046 23.1046 22 22 22H10C8.89543 22 8 21.1046 8 20V12Z" fill="#C5A059"/>
  <path d="M10 14H14V18H10V14Z" fill="#000814"/>
  <path d="M16 14H20V18H16V14Z" fill="#000814"/>
  <path d="M6 8L10 12L6 16V8Z" fill="#C5A059"/>
  <path d="M26 8L22 12L26 16V8Z" fill="#C5A059"/>
  <circle cx="16" cy="8" r="2" fill="#C5A059"/>
</svg>
