<svg width="180" height="40" viewBox="0 0 180 40" fill="none" xmlns="http://www.w3.org/2000/svg">
  <rect width="40" height="40" rx="8" fill="#C5A059"/>
  <path d="M10 15C10 13.8954 10.8954 13 12 13H28C29.1046 13 30 13.8954 30 15V25C30 26.1046 29.1046 27 28 27H12C10.8954 27 10 26.1046 10 25V15Z" fill="#000814"/>
  <path d="M12 17H18V23H12V17Z" fill="#C5A059"/>
  <path d="M20 17H26V23H20V17Z" fill="#C5A059"/>
  <path d="M7 10L12 15L7 20V10Z" fill="#000814"/>
  <path d="M33 10L28 15L33 20V10Z" fill="#000814"/>
  <circle cx="20" cy="10" r="2.5" fill="#000814"/>
  
  <text x="50" y="28" font-family="Arial, sans-serif" font-size="24" font-weight="900" fill="#C5A059">SKYVOYAGE</text>
</svg>
